<?xml version="1.0" encoding="UTF-8" standalone="no"?>
<!-- Created with Inkscape (http://www.inkscape.org/) -->

<svg
   xmlns:dc="http://purl.org/dc/elements/1.1/"
   xmlns:cc="http://creativecommons.org/ns#"
   xmlns:rdf="http://www.w3.org/1999/02/22-rdf-syntax-ns#"
   xmlns:svg="http://www.w3.org/2000/svg"
   xmlns="http://www.w3.org/2000/svg"
   version="1.1"
   viewBox="0 0 512 512"
   id="svg2985">
  <metadata
     id="metadata2991">
    <rdf:RDF>
      <cc:Work
         rdf:about="">
        <dc:format>image/svg+xml</dc:format>
        <dc:type
           rdf:resource="http://purl.org/dc/dcmitype/StillImage" />
        <dc:title></dc:title>
      </cc:Work>
    </rdf:RDF>
  </metadata>
  <defs
     id="defs2989" />
  <g
     transform="matrix(1.0823535,0,0,1.0804633,-21.0825,-20.61853)"
     id="g3071">
    <path
       d="M 238.46716,479.68865 C 165.34279,473.6475 103.19047,439.55459 64.116341,376.7316 44.412793,334.47408 23.228994,296.0046 28.851783,251.94522 36.706536,197.26584 62.056859,135.49464 98.837436,98.612006 157.445,39.841859 226.05695,15.173365 306.04718,35.351367 c 58.45465,14.74553 108.88075,45.79258 140.9126,97.293013 21.29867,49.7894 39.1136,96.92031 32.42987,151.76294 -7.85475,54.67942 -28.95304,93.73351 -65.73361,130.61613 -49.02907,49.16512 -106.62467,70.3296 -175.18888,64.6652 z m 50.39877,-55.52067 c 28.77359,-6.21724 55.89748,-19.22262 76.28465,-36.57703 5.75238,-4.89667 6.75022,-5.37766 11.15587,-5.37766 l 4.83847,0 0.71661,-5.73551 c 0.61372,-4.91194 1.39808,-6.5242 5.46242,-11.22775 16.51997,-19.11826 29.76622,-47.04013 36.04182,-75.97273 1.95702,-9.02258 2.24689,-13.25615 2.24689,-32.81451 0,-19.55837 -0.28987,-23.79194 -2.24689,-32.81452 -6.36787,-29.35807 -19.23223,-56.27817 -36.69952,-76.79798 -4.88495,-5.73861 -5.37766,-6.75755 -5.37766,-11.12098 0,-5.39898 -0.73199,-6.01504 -7.1466,-6.01504 -3.34116,0 -4.90866,-0.79465 -9.64904,-4.89156 -19.27731,-16.66067 -47.03032,-29.854756 -76.14038,-36.198017 -9.04322,-1.970573 -13.21141,-2.257303 -32.81449,-2.257303 -19.60309,0 -23.77132,0.28673 -32.8145,2.257303 -27.45115,5.981771 -50.23267,16.288017 -71.1293,32.178477 -6.79824,5.16959 -8.21997,5.83925 -12.97428,6.1109 l -5.33938,0.30512 -0.31242,4.94188 c -0.28237,4.46711 -0.96646,5.71358 -7.12068,12.97428 -17.27308,20.37857 -29.75887,44.67705 -36.363888,70.76728 -0.894777,3.53441 -2.292434,6.41648 -3.533059,7.28546 -1.850674,1.29625 -1.912063,1.65376 -0.623904,3.63342 1.170613,1.79903 1.241368,3.63817 0.391638,10.17989 -1.565935,12.05549 -0.394998,40.83406 2.147882,52.78927 6.167557,28.99642 18.919821,55.39672 37.303951,77.22816 6.35603,7.54792 7.34547,9.51643 7.51199,14.94496 0.099,3.22336 0.13125,3.24356 5.2006,3.24356 4.46385,0 5.67939,0.48363 9.73069,3.87165 21.50219,17.98187 52.36592,31.60632 82.84389,36.57052 13.07767,2.13006 45.50004,1.30766 58.40862,-1.48154 z"
       id="path3075"
       style="fill:#222222;fill-opacity:1" />
    <path
       d="M 225.69125,488.34357 C 168.85763,480.53842 116.01639,452.07838 79.477453,409.5932 49.468576,374.70085 30.172245,331.58902 24.07839,285.82072 c -1.821733,-13.682 -1.821733,-44.97453 0,-58.65652 7.645682,-57.4234 35.992937,-110.36054 78.82077,-147.194271 34.89242,-30.008864 78.00446,-49.305219 123.77241,-55.39908 13.68224,-1.821726 44.97451,-1.821726 58.65666,0 57.42333,7.64571 110.3605,35.99296 147.19427,78.820891 30.00902,34.89232 49.30525,78.00428 55.39918,123.77246 1.82165,13.68199 1.82165,44.97452 0,58.65652 -6.09393,45.7683 -25.39016,88.88013 -55.39918,123.77248 -20.48131,23.81461 -44.69912,42.35266 -73.9778,56.62902 -23.97543,11.6907 -47.18831,18.72654 -73.21647,22.19211 -13.2536,1.76437 -46.56096,1.72497 -59.63698,-0.0692 z m 49.50438,-16.69358 c 42.64645,-3.77273 85.43356,-21.16633 117.54544,-47.78424 6.66067,-5.52103 9.7513,-10.64733 9.7513,-16.17367 l 0,-4.42574 4.79898,-0.58125 c 2.63933,-0.31999 6.26461,-1.31981 8.0563,-2.22244 5.57355,-2.8078 17.95139,-18.79778 27.76612,-35.86878 42.93958,-74.68645 37.44847,-168.71882 -13.84866,-237.14967 -10.15767,-13.55038 -14.99566,-17.44408 -21.6747,-17.44408 l -4.84786,0 -0.47762,-5.75822 c -0.26258,-3.16709 -1.0008,-5.932768 -1.64051,-6.145993 -0.63951,-0.21322 -1.16309,-0.993094 -1.16309,-1.73306 0,-3.005009 -19.33559,-17.757762 -35.35996,-26.979189 C 311.00826,38.830954 246.58905,32.187899 188.58035,51.283552 c -21.1915,6.976042 -41.73104,17.370368 -58.36168,29.535107 -13.35049,9.765264 -14.7529,11.5237 -15.62072,19.583701 l -0.54401,5.05143 -5.0514,0.29077 c -7.51672,0.43291 -10.787117,2.45278 -17.945371,11.08504 -18.742148,22.60091 -31.386601,45.25432 -40.173364,71.97343 -5.240448,15.93501 -6.673088,23.55803 -5.083311,27.04706 1.077988,2.36603 0.973968,2.91572 -0.82741,4.37461 -2.573407,2.08382 -3.907341,9.81753 -4.774403,27.6804 -2.224515,45.82821 12.593128,96.14093 39.275775,133.35848 12.090469,16.86403 17.864484,21.72109 25.821494,21.72109 l 3.9515,0 0.65469,4.93513 c 0.92119,6.9444 2.98298,10.5145 9.01165,15.60281 41.61517,35.12378 100.00705,53.10544 156.28184,48.12738 z"
       id="path3073"
       style="fill:#141516;fill-opacity:1" />
  </g>
</svg>
